<svg width="188px" height="38px" viewBox="0 0 188 38" version="1.1" xmlns="http://www.w3.org/2000/svg" xmlns:xlink="http://www.w3.org/1999/xlink">
    <title>EDDCB9D1-8F0A-4291-B3CA-395F7544BBC8@1.00x</title>
    <g id="Video-Course" stroke="none" stroke-width="1" fill="none" fill-rule="evenodd">
        <g id="Video-Course-Failed" transform="translate(-24.000000, -27.000000)">
            <g id="Menu" transform="translate(24.000000, 27.000000)">
                <g id="Logo-Music">
                    <g id="Group" fill="#F76076">
                        <rect id="Rectangle" fill-opacity="0.4" x="0" y="9.5" width="3.16666667" height="19"></rect>
                        <rect id="Rectangle-Copy-2" fill-opacity="0.7" x="7.38888889" y="4.22222222" width="3.16666667" height="29.5555556"></rect>
                        <rect id="Rectangle-Copy-3" x="14.7777778" y="0" width="3.16666667" height="38"></rect>
                        <rect id="Rectangle-Copy-5" fill-opacity="0.7" x="22.1666667" y="4.22222222" width="3.16666667" height="29.5555556"></rect>
                        <rect id="Rectangle-Copy-6" fill-opacity="0.4" x="29.5555556" y="9.5" width="3.16666667" height="19"></rect>
                    </g>
                    <path d="M48.816,24 L49.338,17.844 L52.632,22.956 L53.316,22.956 L56.61,17.844 L57.132,24 L59.958,24 L58.788,10.95 L57.978,10.95 L52.974,18.582 L47.97,10.95 L47.16,10.95 L45.99,24 L48.816,24 Z M67.806,24.234 C69.516,24.234 70.884,23.712 71.874,22.65 C72.882,21.606 73.386,20.22 73.386,18.492 L73.386,11.22 L70.524,11.22 L70.524,18.6 C70.524,20.418 69.534,21.498 67.824,21.498 C66.114,21.498 65.142,20.346 65.142,18.6 L65.142,11.22 L62.28,11.22 L62.28,18.492 C62.28,20.238 62.802,21.624 63.828,22.686 C64.818,23.712 66.15,24.234 67.806,24.234 Z M80.01,24.234 C81.342,24.234 82.422,23.874 83.268,23.154 C84.114,22.434 84.546,21.516 84.546,20.4 C84.546,18.69 83.448,17.394 81.234,16.476 L79.92,15.936 C78.948,15.522 78.462,15.054 78.462,14.532 C78.462,13.938 79.092,13.524 79.83,13.524 C80.748,13.524 81.738,13.938 82.8,14.748 L84.33,12.624 C82.98,11.526 81.522,10.968 79.92,10.968 C78.606,10.968 77.562,11.31 76.752,12.012 C75.942,12.696 75.546,13.578 75.546,14.64 C75.546,16.35 76.788,17.664 78.57,18.402 L80.01,18.996 C81.036,19.41 81.576,19.842 81.576,20.508 C81.576,21.21 80.91,21.66 79.956,21.66 C78.966,21.66 77.886,21.21 76.734,20.292 L75.33,22.452 C76.77,23.64 78.336,24.234 80.01,24.234 Z M89.532,24 L89.532,11.22 L86.67,11.22 L86.67,24 L89.532,24 Z M98.496,24.234 C100.638,24.234 102.402,23.388 103.806,21.678 L101.736,19.842 C100.71,20.994 99.882,21.498 98.568,21.498 C97.47,21.498 96.57,21.138 95.868,20.4 C95.166,19.662 94.806,18.744 94.806,17.628 C94.806,16.494 95.166,15.576 95.868,14.838 C96.57,14.1 97.47,13.722 98.568,13.722 C99.702,13.722 100.728,14.28 101.664,15.378 L103.716,13.47 C102.438,11.958 100.926,10.968 98.568,10.968 C96.714,10.968 95.13,11.598 93.834,12.876 C92.556,14.154 91.908,15.738 91.908,17.628 C91.908,19.554 92.556,21.138 93.852,22.38 C95.166,23.622 96.714,24.234 98.496,24.234 Z M114.192,24.234 C115.524,24.234 116.604,23.874 117.45,23.154 C118.296,22.434 118.728,21.516 118.728,20.4 C118.728,18.69 117.63,17.394 115.416,16.476 L114.102,15.936 C113.13,15.522 112.644,15.054 112.644,14.532 C112.644,13.938 113.274,13.524 114.012,13.524 C114.93,13.524 115.92,13.938 116.982,14.748 L118.512,12.624 C117.162,11.526 115.704,10.968 114.102,10.968 C112.788,10.968 111.744,11.31 110.934,12.012 C110.124,12.696 109.728,13.578 109.728,14.64 C109.728,16.35 110.97,17.664 112.752,18.402 L114.192,18.996 C115.218,19.41 115.758,19.842 115.758,20.508 C115.758,21.21 115.092,21.66 114.138,21.66 C113.148,21.66 112.068,21.21 110.916,20.292 L109.512,22.452 C110.952,23.64 112.518,24.234 114.192,24.234 Z M126.666,24.234 C128.808,24.234 130.572,23.388 131.976,21.678 L129.906,19.842 C128.88,20.994 128.052,21.498 126.738,21.498 C125.64,21.498 124.74,21.138 124.038,20.4 C123.336,19.662 122.976,18.744 122.976,17.628 C122.976,16.494 123.336,15.576 124.038,14.838 C124.74,14.1 125.64,13.722 126.738,13.722 C127.872,13.722 128.898,14.28 129.834,15.378 L131.886,13.47 C130.608,11.958 129.096,10.968 126.738,10.968 C124.884,10.968 123.3,11.598 122.004,12.876 C120.726,14.154 120.078,15.738 120.078,17.628 C120.078,19.554 120.726,21.138 122.022,22.38 C123.336,23.622 124.884,24.234 126.666,24.234 Z M136.944,24 L136.944,18.87 L142.326,18.87 L142.326,24 L145.188,24 L145.188,11.22 L142.326,11.22 L142.326,16.134 L136.944,16.134 L136.944,11.22 L134.082,11.22 L134.082,24 L136.944,24 Z M154.278,24.234 C156.15,24.234 157.734,23.604 159.048,22.362 C160.362,21.102 161.01,19.518 161.01,17.61 C161.01,15.702 160.362,14.118 159.084,12.858 C157.806,11.598 156.204,10.968 154.278,10.968 C152.388,10.968 150.804,11.598 149.508,12.876 C148.212,14.154 147.564,15.738 147.564,17.628 C147.564,19.518 148.212,21.102 149.508,22.362 C150.822,23.604 152.406,24.234 154.278,24.234 Z M154.278,21.498 C153.18,21.498 152.262,21.138 151.542,20.4 C150.822,19.662 150.462,18.726 150.462,17.61 C150.462,16.476 150.822,15.54 151.542,14.82 C152.262,14.082 153.18,13.722 154.278,13.722 C155.412,13.722 156.33,14.082 157.032,14.82 C157.734,15.558 158.094,16.476 158.094,17.61 C158.094,18.762 157.734,19.698 157.014,20.418 C156.312,21.138 155.394,21.498 154.278,21.498 Z M169.272,24.234 C171.144,24.234 172.728,23.604 174.042,22.362 C175.356,21.102 176.004,19.518 176.004,17.61 C176.004,15.702 175.356,14.118 174.078,12.858 C172.8,11.598 171.198,10.968 169.272,10.968 C167.382,10.968 165.798,11.598 164.502,12.876 C163.206,14.154 162.558,15.738 162.558,17.628 C162.558,19.518 163.206,21.102 164.502,22.362 C165.816,23.604 167.4,24.234 169.272,24.234 Z M169.272,21.498 C168.174,21.498 167.256,21.138 166.536,20.4 C165.816,19.662 165.456,18.726 165.456,17.61 C165.456,16.476 165.816,15.54 166.536,14.82 C167.256,14.082 168.174,13.722 169.272,13.722 C170.406,13.722 171.324,14.082 172.026,14.82 C172.728,15.558 173.088,16.476 173.088,17.61 C173.088,18.762 172.728,19.698 172.008,20.418 C171.306,21.138 170.388,21.498 169.272,21.498 Z M186.804,24 L186.804,21.3 L181.242,21.3 L181.242,11.22 L178.38,11.22 L178.38,24 L186.804,24 Z" id="MUSICSCHOOL" fill="#000000" fill-rule="nonzero"></path>
                </g>
            </g>
        </g>
    </g>
</svg>