<?xml version="1.0" encoding="UTF-8" standalone="no" ?>
<!DOCTYPE svg PUBLIC "-//W3C//DTD SVG 1.1//EN" "http://www.w3.org/Graphics/SVG/1.1/DTD/svg11.dtd">
<svg xmlns="http://www.w3.org/2000/svg" xmlns:xlink="http://www.w3.org/1999/xlink" version="1.1" width="34" height="38" viewBox="0 0 34 38" xml:space="preserve">
<desc>Created with Fabric.js 3.6.6</desc>
<defs>
</defs>
<g transform="matrix(1 0 0 1 2.09 19.5)"  >
<rect style="stroke: none; stroke-width: 1; stroke-dasharray: none; stroke-linecap: butt; stroke-dashoffset: 0; stroke-linejoin: miter; stroke-miterlimit: 4; fill: rgb(247,96,118); fill-opacity: 0.4; fill-rule: evenodd; opacity: 1;"  x="-1.585" y="-9.5" rx="0" ry="0" width="3.17" height="19" />
</g>
<g transform="matrix(1 0 0 1 9.48 19.5)"  >
<rect style="stroke: none; stroke-width: 1; stroke-dasharray: none; stroke-linecap: butt; stroke-dashoffset: 0; stroke-linejoin: miter; stroke-miterlimit: 4; fill: rgb(247,96,118); fill-opacity: 0.7; fill-rule: evenodd; opacity: 1;"  x="-1.585" y="-14.78" rx="0" ry="0" width="3.17" height="29.56" />
</g>
<g transform="matrix(1 0 0 1 16.86 19.5)"  >
<rect style="stroke: none; stroke-width: 1; stroke-dasharray: none; stroke-linecap: butt; stroke-dashoffset: 0; stroke-linejoin: miter; stroke-miterlimit: 4; fill: rgb(247,96,118); fill-rule: evenodd; opacity: 1;"  x="-1.585" y="-19" rx="0" ry="0" width="3.17" height="38" />
</g>
<g transform="matrix(1 0 0 1 24.26 19.5)"  >
<rect style="stroke: none; stroke-width: 1; stroke-dasharray: none; stroke-linecap: butt; stroke-dashoffset: 0; stroke-linejoin: miter; stroke-miterlimit: 4; fill: rgb(247,96,118); fill-opacity: 0.7; fill-rule: evenodd; opacity: 1;"  x="-1.585" y="-14.78" rx="0" ry="0" width="3.17" height="29.56" />
</g>
<g transform="matrix(1 0 0 1 31.64 19.5)"  >
<rect style="stroke: none; stroke-width: 1; stroke-dasharray: none; stroke-linecap: butt; stroke-dashoffset: 0; stroke-linejoin: miter; stroke-miterlimit: 4; fill: rgb(247,96,118); fill-opacity: 0.4; fill-rule: evenodd; opacity: 1;"  x="-1.585" y="-9.5" rx="0" ry="0" width="3.17" height="19" />
</g>
</svg>